<mxfile host="app.diagrams.net" modified="2024-05-06T21:20:19.794Z" agent="Mozilla/5.0 (Windows NT 10.0; Win64; x64) AppleWebKit/537.36 (KHTML, like Gecko) Chrome/124.0.0.0 Safari/537.36 Edg/124.0.0.0" etag="FJ3sov5qOjwbMRQ0M8Bz" version="24.3.1" type="device">
  <diagram id="prtHgNgQTEPvFCAcTncT" name="Page-1">
    <mxGraphModel dx="1981" dy="432" grid="1" gridSize="10" guides="1" tooltips="1" connect="1" arrows="1" fold="1" page="1" pageScale="1" pageWidth="827" pageHeight="1169" math="0" shadow="0">
      <root>
        <mxCell id="0" />
        <mxCell id="1" parent="0" />
        <mxCell id="nY8mvWb--xPm8O3eIAMs-3" value="" style="edgeStyle=orthogonalEdgeStyle;rounded=0;orthogonalLoop=1;jettySize=auto;html=1;" parent="1" source="nY8mvWb--xPm8O3eIAMs-1" target="nY8mvWb--xPm8O3eIAMs-2" edge="1">
          <mxGeometry relative="1" as="geometry" />
        </mxCell>
        <mxCell id="mhSPY1QSyStucMGvy-kT-1" value="" style="edgeStyle=orthogonalEdgeStyle;rounded=0;orthogonalLoop=1;jettySize=auto;html=1;" edge="1" parent="1" source="nY8mvWb--xPm8O3eIAMs-1" target="nY8mvWb--xPm8O3eIAMs-11">
          <mxGeometry relative="1" as="geometry" />
        </mxCell>
        <mxCell id="nY8mvWb--xPm8O3eIAMs-1" value="AWS Lambda" style="rounded=0;whiteSpace=wrap;html=1;fontSize=19;" parent="1" vertex="1">
          <mxGeometry x="320" y="180" width="130" height="60" as="geometry" />
        </mxCell>
        <mxCell id="nY8mvWb--xPm8O3eIAMs-2" value="Amazon RDS" style="rounded=0;whiteSpace=wrap;html=1;fontSize=19;" parent="1" vertex="1">
          <mxGeometry x="320" y="290" width="130" height="60" as="geometry" />
        </mxCell>
        <mxCell id="nY8mvWb--xPm8O3eIAMs-5" value="" style="edgeStyle=orthogonalEdgeStyle;rounded=0;orthogonalLoop=1;jettySize=auto;html=1;" parent="1" source="nY8mvWb--xPm8O3eIAMs-4" target="nY8mvWb--xPm8O3eIAMs-1" edge="1">
          <mxGeometry relative="1" as="geometry" />
        </mxCell>
        <mxCell id="nY8mvWb--xPm8O3eIAMs-4" value="Amazon S3" style="rounded=0;whiteSpace=wrap;html=1;fontSize=19;" parent="1" vertex="1">
          <mxGeometry x="100" y="180" width="120" height="60" as="geometry" />
        </mxCell>
        <mxCell id="nY8mvWb--xPm8O3eIAMs-10" value="Amazon S3" style="rounded=0;whiteSpace=wrap;html=1;fontSize=19;" parent="1" vertex="1">
          <mxGeometry x="880" y="180" width="120" height="60" as="geometry" />
        </mxCell>
        <mxCell id="mhSPY1QSyStucMGvy-kT-6" value="" style="edgeStyle=orthogonalEdgeStyle;rounded=0;orthogonalLoop=1;jettySize=auto;html=1;" edge="1" parent="1" source="nY8mvWb--xPm8O3eIAMs-11" target="mhSPY1QSyStucMGvy-kT-5">
          <mxGeometry relative="1" as="geometry" />
        </mxCell>
        <mxCell id="nY8mvWb--xPm8O3eIAMs-11" value="Databricks" style="rounded=1;whiteSpace=wrap;html=1;fontSize=19;" parent="1" vertex="1">
          <mxGeometry x="500" y="180" width="120" height="60" as="geometry" />
        </mxCell>
        <mxCell id="mhSPY1QSyStucMGvy-kT-11" style="edgeStyle=orthogonalEdgeStyle;rounded=0;orthogonalLoop=1;jettySize=auto;html=1;" edge="1" parent="1" source="mhSPY1QSyStucMGvy-kT-3" target="nY8mvWb--xPm8O3eIAMs-4">
          <mxGeometry relative="1" as="geometry" />
        </mxCell>
        <mxCell id="mhSPY1QSyStucMGvy-kT-3" value="Identity and Access Management (IAM)" style="rounded=0;whiteSpace=wrap;html=1;fontSize=19;" vertex="1" parent="1">
          <mxGeometry x="-90" y="80" width="150" height="90" as="geometry" />
        </mxCell>
        <mxCell id="mhSPY1QSyStucMGvy-kT-10" style="edgeStyle=orthogonalEdgeStyle;rounded=0;orthogonalLoop=1;jettySize=auto;html=1;" edge="1" parent="1" source="mhSPY1QSyStucMGvy-kT-4" target="nY8mvWb--xPm8O3eIAMs-4">
          <mxGeometry relative="1" as="geometry" />
        </mxCell>
        <mxCell id="mhSPY1QSyStucMGvy-kT-4" value="AWS Secrets Manager" style="rounded=0;whiteSpace=wrap;html=1;fontSize=19;" vertex="1" parent="1">
          <mxGeometry x="-90" y="280" width="130" height="60" as="geometry" />
        </mxCell>
        <mxCell id="mhSPY1QSyStucMGvy-kT-7" value="" style="edgeStyle=orthogonalEdgeStyle;rounded=0;orthogonalLoop=1;jettySize=auto;html=1;" edge="1" parent="1" source="mhSPY1QSyStucMGvy-kT-5" target="nY8mvWb--xPm8O3eIAMs-10">
          <mxGeometry relative="1" as="geometry" />
        </mxCell>
        <mxCell id="mhSPY1QSyStucMGvy-kT-5" value="CodePipeline" style="rounded=0;whiteSpace=wrap;html=1;fontSize=19;" vertex="1" parent="1">
          <mxGeometry x="690" y="180" width="120" height="60" as="geometry" />
        </mxCell>
      </root>
    </mxGraphModel>
  </diagram>
</mxfile>
